97dfd7f32d34fb74337c0f6c66e26e2d *tests/data/fate/aptx.aptx
418952 tests/data/fate/aptx.aptx
#tb 0: 1/44100
#media_type 0: audio
#codec_id 0: pcm_s16le
#sample_rate 0: 44100
#channel_layout_name 0: 2 channels
0,          0,          0,     1024,     4096, 0xcbb4ceff
0,       1024,       1024,     1024,     4096, 0xa66533e7
0,       2048,       2048,     1024,     4096, 0x4f22ec39
0,       3072,       3072,     1024,     4096, 0x45f117f9
0,       4096,       4096,     1024,     4096, 0xad6c0b7a
0,       5120,       5120,     1024,     4096, 0x611618fd
0,       6144,       6144,     1024,     4096, 0x0ec02f2b
0,       7168,       7168,     1024,     4096, 0x2cf9ae5c
0,       8192,       8192,     1024,     4096, 0xfb008ac0
0,       9216,       9216,     1024,     4096, 0x25068495
0,      10240,      10240,      785,     3140, 0x5a260589
